<?xml version="1.0" encoding="UTF-8" standalone="no"?>
<!-- Created with Inkscape (http://www.inkscape.org/) -->

<svg
   width="1500mm"
   height="500mm"
   viewBox="0 0 1500 500"
   version="1.1"
   id="svg8"
   xmlns="http://www.w3.org/2000/svg"
   xmlns:svg="http://www.w3.org/2000/svg"
   xmlns:rdf="http://www.w3.org/1999/02/22-rdf-syntax-ns#"
   xmlns:cc="http://creativecommons.org/ns#"
   xmlns:dc="http://purl.org/dc/elements/1.1/">
  <defs
     id="defs2" />
  <metadata
     id="metadata5">
    <rdf:RDF>
      <cc:Work
         rdf:about="">
        <dc:format>image/svg+xml</dc:format>
        <dc:type
           rdf:resource="http://purl.org/dc/dcmitype/StillImage" />
      </cc:Work>
    </rdf:RDF>
  </metadata>
  <g
     id="layer1"
     transform="translate(0,203)"
     style="display:inline">
    <path
       style="opacity:1;fill:#5b2ab1;fill-opacity:1;stroke-width:0.264583"
       id="rect23"
       width="500"
       height="500"
       x="1.3322676e-14"
       y="-203"
       d="M 250,-203 A 250,250 45 0 1 500,47 250,250 135 0 1 250,297 250,250 45 0 1 0,47 250,250 135 0 1 250,-203 Z" />
  </g>
  <g
     id="layer2"
     style="display:inline">
    <g
       aria-label="n"
       transform="matrix(0.26458333,0,0,0.26458333,-33.003225,-139.12044)"
       id="flowRoot10"
       style="font-weight:900;font-size:1066.67px;line-height:1.25;font-family:'Source Code Pro';-inkscape-font-specification:'Source Code Pro Heavy';letter-spacing:0px;word-spacing:0px">
      <path
         d="m 735.61828,1810.6883 v -666.665 h 202.66616 l 11.99997,229.3328 -25.33327,-25.3333 q 13.3333,-71.9998 46.66655,-119.9997 34.66661,-47.9999 85.33311,-71.9998 51.9999,-25.3333 115.9997,-25.3333 69.3332,0 119.9997,26.6666 51.9999,26.6666 81.3331,78.6665 29.3333,51.9999 29.3333,130.6663 v 443.9989 h -226.6661 v -383.999 q 0,-69.3332 -26.6666,-95.9998 -26.6666,-26.6666 -67.9998,-26.6666 -31.9999,0 -59.9999,16 -27.9999,14.6666 -43.99986,47.9999 -15.99996,33.3332 -15.99996,89.3331 v 353.3324 z"
         style="font-weight:bold;font-size:1333.33px;font-family:'Work Sans';-inkscape-font-specification:'Work Sans Bold';fill:#ffffff"
         id="path137" />
    </g>
    <g
       aria-label="nuntium"
       transform="matrix(0.26458333,0,0,0.26458333,355.84863,-71.285197)"
       id="flowRoot10-6"
       style="font-weight:900;font-size:1066.67px;line-height:1.25;font-family:'Source Code Pro';-inkscape-font-specification:'Source Code Pro Heavy';letter-spacing:0px;word-spacing:0px;display:inline;fill:#5b2ab1">
      <path
         d="M 734.88519,1520.2425 V 1086.909 h 60.66669 l 6.06666,97.0667 -11.26667,-9.5333 q 13.86668,-34.6667 37.26668,-55.4667 23.40001,-21.6667 53.73336,-31.2 31.20001,-9.5333 64.13336,-9.5333 46.80001,0 84.93333,18.2 38.1334,17.3333 60.6667,53.7333 23.4,36.4 23.4,92.7334 v 277.3334 h -69.3333 v -253.0667 q 0,-71.9334 -31.2,-99.6667 -30.33339,-28.6 -75.40007,-28.6 -31.20001,0 -62.40002,14.7333 -31.20002,14.7333 -52.00002,47.6667 -19.93334,32.9333 -19.93334,88.4 v 230.5334 z"
         style="font-weight:normal;font-size:866.667px;font-family:'work sans';-inkscape-font-specification:'work sans'"
         id="path158" />
      <path
         d="m 1428.2183,1528.9092 q -41.6,0 -78.8667,-15.6 -36.4,-15.6 -59.8,-50.2667 -22.5333,-35.5333 -22.5333,-91.8667 V 1086.909 h 69.3333 v 266.0668 q 0,65.8667 28.6001,91 28.6,24.2667 80.6,24.2667 24.2667,0 47.6667,-7.8 23.4,-8.6667 41.6,-26 19.0667,-18.2 29.4667,-45.9333 11.2666,-27.7334 11.2666,-65.8667 V 1086.909 h 69.3334 v 433.3335 h -60.6667 l -4.3333,-65.8667 q -22.5334,39.0001 -61.5334,57.2001 -38.1333,17.3333 -90.1334,17.3333 z"
         style="font-weight:normal;font-size:866.667px;font-family:'work sans';-inkscape-font-specification:'work sans'"
         id="path160" />
      <path
         d="M 1806.0839,1520.2425 V 1086.909 h 60.6667 l 6.0667,97.0667 -11.2667,-9.5333 q 13.8667,-34.6667 37.2667,-55.4667 23.4,-21.6667 53.7333,-31.2 31.2001,-9.5333 64.1334,-9.5333 46.8,0 84.9334,18.2 38.1333,17.3333 60.6667,53.7333 23.4,36.4 23.4,92.7334 v 277.3334 h -69.3334 v -253.0667 q 0,-71.9334 -31.2,-99.6667 -30.3334,-28.6 -75.4,-28.6 -31.2001,0 -62.4001,14.7333 -31.2,14.7333 -52,47.6667 -19.9333,32.9333 -19.9333,88.4 v 230.5334 z"
         style="font-weight:normal;font-size:866.667px;font-family:'work sans';-inkscape-font-specification:'work sans'"
         id="path162" />
      <path
         d="m 2438.7488,963.84233 v 436.80017 q 0,32.0667 18.2,47.6667 18.2,15.6 46.8,15.6 25.1334,0 43.3334,-8.6667 18.2,-8.6667 32.9333,-23.4 l 24.2667,58.0667 q -19.9333,18.2 -47.6667,28.6 -26.8667,10.4 -62.4,10.4 -32.9333,0 -61.5334,-11.2667 -28.6,-12.1333 -45.9333,-37.2666 -16.4667,-26.0001 -17.3333,-67.6001 V 982.909 Z m 157.7334,123.06667 v 59.8001 h -313.7334 v -59.8001 z"
         style="font-weight:normal;font-size:866.667px;font-family:'work sans';-inkscape-font-specification:'work sans'"
         id="path164" />
      <path
         d="m 2734.2811,1003.709 q -23.4,0 -38.1333,-13.86666 -13.8667,-14.73334 -13.8667,-38.13335 0,-23.40001 13.8667,-37.26668 14.7333,-14.73334 38.1333,-14.73334 23.4,0 37.2667,14.73334 14.7333,13.86667 14.7333,37.26668 0,23.40001 -14.7333,38.13335 -13.8667,13.86666 -37.2667,13.86666 z m 34.6667,83.2 v 433.3335 h -69.3334 V 1086.909 Z"
         style="font-weight:normal;font-size:866.667px;font-family:'work sans';-inkscape-font-specification:'work sans'"
         id="path166" />
      <path
         d="m 3087.0136,1528.9092 q -41.6,0 -78.8667,-15.6 -36.4,-15.6 -59.8,-50.2667 -22.5333,-35.5333 -22.5333,-91.8667 V 1086.909 h 69.3333 v 266.0668 q 0,65.8667 28.6,91 28.6001,24.2667 80.6001,24.2667 24.2666,0 47.6667,-7.8 23.4,-8.6667 41.6,-26 19.0666,-18.2 29.4666,-45.9333 11.2667,-27.7334 11.2667,-65.8667 V 1086.909 h 69.3334 v 433.3335 h -60.6667 l -4.3333,-65.8667 q -22.5334,39.0001 -61.5334,57.2001 -38.1333,17.3333 -90.1334,17.3333 z"
         style="font-weight:normal;font-size:866.667px;font-family:'work sans';-inkscape-font-specification:'work sans'"
         id="path168" />
      <path
         d="M 3464.8793,1520.2425 V 1086.909 h 60.6667 l 4.3334,67.6001 q 23.4,-39.8667 60.6666,-58.0667 38.1334,-18.2 78.0001,-18.2 45.9333,0 86.6667,20.8 40.7333,20.8 62.4,64.1333 13.8667,-29.4666 39,-47.6666 25.1334,-19.0667 54.6,-27.7334 30.3334,-9.5333 57.2,-9.5333 41.6001,0 78.8667,17.3333 38.1334,17.3334 62.4001,53.7334 24.2666,36.4 24.2666,93.6 v 277.3334 h -69.3333 v -270.4001 q 0,-58.9333 -29.4667,-84.9333 -29.4667,-26 -72.8,-26 -33.8,0 -63.2667,16.4666 -29.4667,16.4667 -47.6667,48.5334 -17.3333,32.0667 -17.3333,78.8667 v 237.4667 h -69.3334 v -270.4001 q 0,-58.9333 -29.4667,-84.9333 -29.4666,-26 -72.8,-26 -28.6,0 -58.9334,15.6 -29.4666,14.7333 -49.4,47.6667 -19.9333,32.9333 -19.9333,86.6667 v 231.4 z"
         style="font-weight:normal;font-size:866.667px;font-family:'work sans';-inkscape-font-specification:'work sans'"
         id="path170" />
    </g>
  </g>
</svg>
