<?xml version="1.0" standalone="no"?>
<!DOCTYPE svg PUBLIC "-//W3C//DTD SVG 20010904//EN"
 "http://www.w3.org/TR/2001/REC-SVG-20010904/DTD/svg10.dtd">
<svg version="1.0" xmlns="http://www.w3.org/2000/svg"
 width="700.000000pt" height="700.000000pt" viewBox="0 0 700.000000 700.000000"
 preserveAspectRatio="xMidYMid meet">
<metadata>
Created by potrace 1.14, written by Peter Selinger 2001-2017
</metadata>
<g transform="translate(0.000000,700.000000) scale(0.100000,-0.100000)"
fill="#000000" stroke="none">
<path d="M3240 6989 c-865 -71 -1650 -438 -2245 -1050 -517 -532 -848 -1201
-956 -1934 -114 -774 44 -1591 437 -2262 480 -821 1262 -1408 2179 -1637 289
-72 523 -100 840 -100 473 0 877 76 1303 245 1032 411 1813 1302 2093 2387 70
274 103 547 103 862 0 577 -119 1076 -379 1589 -479 945 -1381 1631 -2421
1840 -277 56 -689 82 -954 60z m905 -2258 c44 -12 123 -42 174 -67 163 -80
302 -238 362 -410 54 -157 52 -119 56 -1101 l4 -913 -420 0 -420 0 -4 778 c-4
847 -4 849 -62 948 -132 226 -533 185 -660 -67 -70 -136 -75 -204 -75 -996 l0
-663 -420 0 -420 0 0 1235 0 1235 379 0 378 0 7 -162 c4 -90 9 -198 13 -241
l6 -78 18 40 c51 114 174 259 283 333 108 75 249 128 401 152 74 11 321 -3
400 -23z"/>
</g>
</svg>
