<?xml version="1.0" encoding="UTF-8" standalone="no"?>
<svg
   xmlns:dc="http://purl.org/dc/elements/1.1/"
   xmlns:cc="http://creativecommons.org/ns#"
   xmlns:rdf="http://www.w3.org/1999/02/22-rdf-syntax-ns#"
   xmlns:svg="http://www.w3.org/2000/svg"
   xmlns="http://www.w3.org/2000/svg"
   id="svg8"
   version="1.1"
   viewBox="0 0 1500 500"
   height="500mm"
   width="1500mm">
  <defs
     id="defs2" />
  <metadata
     id="metadata5">
    <rdf:RDF>
      <cc:Work
         rdf:about="">
        <dc:format>image/svg+xml</dc:format>
        <dc:type
           rdf:resource="http://purl.org/dc/dcmitype/StillImage" />
        <dc:title></dc:title>
      </cc:Work>
    </rdf:RDF>
  </metadata>
  <g
     style="display:inline"
     transform="translate(0,203)"
     id="layer1">
    <rect
       y="-203"
       x="1.3322676e-14"
       height="500"
       width="500"
       id="rect23"
       style="opacity:1;fill:#5b2ab1;fill-opacity:1;stroke-width:0.26458332" />
  </g>
  <g
     style="display:inline"
     id="layer2">
    <g
       id="flowRoot10"
       style="font-style:normal;font-variant:normal;font-weight:900;font-stretch:normal;font-size:1066.66674805px;line-height:1.25;font-family:'Source Code Pro';-inkscape-font-specification:'Source Code Pro Heavy';letter-spacing:0px;word-spacing:0px;fill:#000000;fill-opacity:1;stroke:none"
       transform="matrix(0.26458333,0,0,0.26458333,-33.003225,-139.12044)"
       aria-label="n">
      <path
         id="path860"
         style="font-style:normal;font-variant:normal;font-weight:bold;font-stretch:normal;font-size:1333.33337402px;font-family:'Work Sans';-inkscape-font-specification:'Work Sans Bold';fill:#ffffff;fill-opacity:1"
         d="m 735.61849,1810.6915 v -666.6667 h 202.66667 l 12.00001,229.3333 -25.33334,-25.3333 q 13.33333,-72 46.66667,-120 34.6667,-48 85.3333,-72 52,-25.3334 116,-25.3334 69.3334,0 120,26.6667 52,26.6667 81.3334,78.6667 29.3333,52 29.3333,130.6666 v 444.0001 h -226.6667 v -384.0001 q 0,-69.3333 -26.6666,-96 -26.6667,-26.6666 -68,-26.6666 -32,0 -60,16 -28.00003,14.6666 -44.00003,48 -16,33.3333 -16,89.3333 v 353.3334 z" />
    </g>
    <g
       id="flowRoot10-6"
       style="font-style:normal;font-variant:normal;font-weight:900;font-stretch:normal;font-size:1066.66674805px;line-height:1.25;font-family:'Source Code Pro';-inkscape-font-specification:'Source Code Pro Heavy';letter-spacing:0px;word-spacing:0px;display:inline;fill:#5b2ab1;fill-opacity:1;stroke:none"
       transform="matrix(0.26458333,0,0,0.26458333,355.84863,-71.285197)"
       aria-label="nuntium">
      <path
         id="path845"
         style="font-style:normal;font-variant:normal;font-weight:normal;font-stretch:normal;font-size:866.66680908px;font-family:'work sans';-inkscape-font-specification:'work sans';fill:#5b2ab1;fill-opacity:1"
         d="m 734.88517,1520.2397 v -433.3334 h 60.66668 l 6.06666,97.0666 -11.26666,-9.5333 q 13.86666,-34.6667 37.26667,-55.4667 23.4,-21.6666 53.73334,-31.2 31.20001,-9.5333 64.13334,-9.5333 46.80001,0 84.9334,18.2 38.1333,17.3333 60.6666,53.7333 23.4,36.4 23.4,92.7334 v 277.3334 h -69.3333 v -253.0668 q 0,-71.9333 -31.2,-99.6666 -30.33336,-28.6 -75.40003,-28.6 -31.20001,0 -62.40001,14.7333 -31.20001,14.7333 -52.00001,47.6667 -19.93334,32.9333 -19.93334,88.4 v 230.5334 z" />
      <path
         id="path847"
         style="font-style:normal;font-variant:normal;font-weight:normal;font-stretch:normal;font-size:866.66680908px;font-family:'work sans';-inkscape-font-specification:'work sans';fill:#5b2ab1;fill-opacity:1"
         d="m 1428.3405,1528.9063 q -41.6,0 -78.8667,-15.6 -36.4,-15.6 -59.8,-50.2667 -22.5333,-35.5333 -22.5333,-91.8666 v -284.2667 h 69.3333 v 266.0667 q 0,65.8666 28.6,91 28.6,24.2666 80.6,24.2666 24.2667,0 47.6667,-7.8 23.4,-8.6666 41.6,-26 19.0667,-18.2 29.4667,-45.9333 11.2666,-27.7333 11.2666,-65.8667 v -235.7333 h 69.3334 v 433.3334 h -60.6667 l -4.3333,-65.8667 q -22.5334,39 -61.5334,57.2 -38.1333,17.3333 -90.1333,17.3333 z" />
      <path
         id="path849"
         style="font-style:normal;font-variant:normal;font-weight:normal;font-stretch:normal;font-size:866.66680908px;font-family:'work sans';-inkscape-font-specification:'work sans';fill:#5b2ab1;fill-opacity:1"
         d="m 1806.3698,1520.2397 v -433.3334 h 60.6667 l 6.0666,97.0666 -11.2666,-9.5333 q 13.8666,-34.6667 37.2666,-55.4667 23.4,-21.6666 53.7334,-31.2 31.2,-9.5333 64.1333,-9.5333 46.8,0 84.9334,18.2 38.1333,17.3333 60.6666,53.7333 23.4001,36.4 23.4001,92.7334 v 277.3334 h -69.3334 v -253.0668 q 0,-71.9333 -31.2,-99.6666 -30.3333,-28.6 -75.4,-28.6 -31.2,0 -62.4,14.7333 -31.2,14.7333 -52,47.6667 -19.9334,32.9333 -19.9334,88.4 v 230.5334 z" />
      <path
         id="path851"
         style="font-style:normal;font-variant:normal;font-weight:normal;font-stretch:normal;font-size:866.66680908px;font-family:'work sans';-inkscape-font-specification:'work sans';fill:#5b2ab1;fill-opacity:1"
         d="m 2438.4542,963.83956 v 436.80004 q 0,32.0667 18.2,47.6667 18.2,15.6 46.8,15.6 25.1334,0 43.3334,-8.6667 18.2,-8.6666 32.9333,-23.4 l 24.2667,58.0667 q -19.9334,18.2 -47.6667,28.6 -26.8667,10.4 -62.4,10.4 -32.9333,0 -61.5333,-11.2666 -28.6001,-12.1334 -45.9334,-37.2667 -16.4667,-26 -17.3333,-67.6 V 982.90623 Z m 157.7334,123.06674 v 59.8 h -313.7334 v -59.8 z" />
      <path
         id="path853"
         style="font-style:normal;font-variant:normal;font-weight:normal;font-stretch:normal;font-size:866.66680908px;font-family:'work sans';-inkscape-font-specification:'work sans';fill:#5b2ab1;fill-opacity:1"
         d="m 2734.7866,1003.7062 q -23.4,0 -38.1334,-13.86663 -13.8666,-14.73334 -13.8666,-38.13334 0,-23.40001 13.8666,-37.26668 14.7334,-14.73333 38.1334,-14.73333 23.4,0 37.2667,14.73333 14.7333,13.86667 14.7333,37.26668 0,23.4 -14.7333,38.13334 -13.8667,13.86663 -37.2667,13.86663 z m 34.6667,83.2001 v 433.3334 h -69.3334 v -433.3334 z" />
      <path
         id="path855"
         style="font-style:normal;font-variant:normal;font-weight:normal;font-stretch:normal;font-size:866.66680908px;font-family:'work sans';-inkscape-font-specification:'work sans';fill:#5b2ab1;fill-opacity:1"
         d="m 3087.195,1528.9063 q -41.6,0 -78.8667,-15.6 -36.4,-15.6 -59.8,-50.2667 -22.5333,-35.5333 -22.5333,-91.8666 v -284.2667 h 69.3333 v 266.0667 q 0,65.8666 28.6,91 28.6,24.2666 80.6,24.2666 24.2667,0 47.6667,-7.8 23.4,-8.6666 41.6,-26 19.0667,-18.2 29.4667,-45.9333 11.2666,-27.7333 11.2666,-65.8667 v -235.7333 h 69.3334 v 433.3334 h -60.6667 l -4.3333,-65.8667 q -22.5334,39 -61.5334,57.2 -38.1333,17.3333 -90.1333,17.3333 z" />
      <path
         id="path857"
         style="font-style:normal;font-variant:normal;font-weight:normal;font-stretch:normal;font-size:866.66680908px;font-family:'work sans';-inkscape-font-specification:'work sans';fill:#5b2ab1;fill-opacity:1"
         d="m 3465.2243,1520.2397 v -433.3334 h 60.6667 l 4.3333,67.6 q 23.4,-39.8667 60.6667,-58.0667 38.1333,-18.2 78,-18.2 45.9333,0 86.6667,20.8 40.7333,20.8 62.4,64.1333 13.8666,-29.4666 39,-47.6666 25.1333,-19.0667 54.6,-27.7334 30.3333,-9.5333 57.2,-9.5333 41.6,0 78.8667,17.3333 38.1333,17.3334 62.4,53.7334 24.2667,36.4 24.2667,93.6 v 277.3334 h -69.3334 v -270.4001 q 0,-58.9333 -29.4667,-84.9333 -29.4666,-26 -72.8,-26 -33.8,0 -63.2666,16.4666 -29.4667,16.4667 -47.6667,48.5334 -17.3334,32.0666 -17.3334,78.8666 v 237.4668 h -69.3333 v -270.4001 q 0,-58.9333 -29.4667,-84.9333 -29.4666,-26 -72.8,-26 -28.6,0 -58.9333,15.6 -29.4667,14.7333 -49.4,47.6666 -19.9334,32.9334 -19.9334,86.6667 v 231.4001 z" />
    </g>
  </g>
</svg>
