<?xml version="1.0" encoding="UTF-8" standalone="no"?>
<svg
   xmlns:dc="http://purl.org/dc/elements/1.1/"
   xmlns:cc="http://creativecommons.org/ns#"
   xmlns:rdf="http://www.w3.org/1999/02/22-rdf-syntax-ns#"
   xmlns:svg="http://www.w3.org/2000/svg"
   xmlns="http://www.w3.org/2000/svg"
   id="svg8"
   version="1.1"
   viewBox="0 0 1500 500"
   height="500mm"
   width="1500mm">
  <defs
     id="defs2" />
  <metadata
     id="metadata5">
    <rdf:RDF>
      <cc:Work
         rdf:about="">
        <dc:format>image/svg+xml</dc:format>
        <dc:type
           rdf:resource="http://purl.org/dc/dcmitype/StillImage" />
        <dc:title></dc:title>
      </cc:Work>
    </rdf:RDF>
  </metadata>
  <g
     style="display:inline"
     transform="translate(0,203)"
     id="layer1">
    <rect
       y="-203"
       x="1.3322676e-14"
       height="500"
       width="500"
       id="rect23"
       style="opacity:1;fill:#5b2ab1;fill-opacity:1;stroke-width:0.26458332" />
  </g>
  <g
     style="display:inline"
     id="layer2">
    <g
       id="flowRoot10"
       style="font-style:normal;font-variant:normal;font-weight:900;font-stretch:normal;font-size:1066.66674805px;line-height:1.25;font-family:'Source Code Pro';-inkscape-font-specification:'Source Code Pro Heavy';letter-spacing:0px;word-spacing:0px;fill:#000000;fill-opacity:1;stroke:none"
       transform="matrix(0.26458333,0,0,0.26458333,-33.003225,-139.12044)"
       aria-label="n">
      <path
         id="path1476"
         style="font-style:normal;font-variant:normal;font-weight:bold;font-stretch:normal;font-size:1333.33337402px;font-family:'Work Sans';-inkscape-font-specification:'Work Sans Bold';fill:#ffffff;fill-opacity:1"
         d="m 735.61849,1810.6915 v -666.6667 h 202.66667 l 12.00001,229.3333 -25.33334,-25.3333 q 13.33333,-72 46.66667,-120 34.6667,-48 85.3333,-72 52,-25.3334 116,-25.3334 69.3334,0 120,26.6667 52,26.6667 81.3334,78.6667 29.3333,52 29.3333,130.6666 v 444.0001 h -226.6667 v -384.0001 q 0,-69.3333 -26.6666,-96 -26.6667,-26.6666 -68,-26.6666 -32,0 -60,16 -28.00003,14.6666 -44.00003,48 -16,33.3333 -16,89.3333 v 353.3334 z" />
    </g>
    <g
       id="flowRoot10-6"
       style="font-style:normal;font-variant:normal;font-weight:900;font-stretch:normal;font-size:1066.66674805px;line-height:1.25;font-family:'Source Code Pro';-inkscape-font-specification:'Source Code Pro Heavy';letter-spacing:0px;word-spacing:0px;display:inline;fill:#5b2ab1;fill-opacity:1;stroke:none"
       transform="matrix(0.26458333,0,0,0.26458333,351.63141,-70.711933)"
       aria-label="nuntium">
      <path
         id="path1479"
         style="font-style:normal;font-variant:normal;font-weight:bold;font-stretch:normal;font-size:866.66680908px;font-family:'Work Sans';-inkscape-font-specification:'Work Sans Bold';fill:#5b2ab1;fill-opacity:1"
         d="m 707.15183,1520.2397 v -433.3334 h 131.73336 l 7.8,149.0666 -16.46667,-16.4666 q 8.66667,-46.8 30.33334,-78 22.53333,-31.2 55.46667,-46.8 33.80001,-16.4667 75.40001,-16.4667 45.06666,0 78.00006,17.3333 33.8,17.3334 52.8666,51.1334 19.0667,33.8 19.0667,84.9333 v 288.6001 H 994.01855 v -249.6001 q 0,-45.0667 -17.33334,-62.4 -17.33334,-17.3333 -44.20001,-17.3333 -20.8,0 -39,10.4 -18.20001,9.5333 -28.60001,31.2 -10.4,21.6666 -10.4,58.0667 v 229.6667 z" />
      <path
         id="path1481"
         style="font-style:normal;font-variant:normal;font-weight:bold;font-stretch:normal;font-size:866.66680908px;font-family:'Work Sans';-inkscape-font-specification:'Work Sans Bold';fill:#5b2ab1;fill-opacity:1"
         d="m 1390.2071,1528.9063 q -44.2,0 -78,-14.7333 -32.9333,-15.6 -52,-49.4 -19.0666,-33.8 -19.0666,-88.4 v -289.4667 h 147.3333 v 254.8 q 0,41.6 16.4667,58.0667 16.4667,16.4666 46.8,16.4666 15.6,0 29.4667,-5.2 13.8666,-6.0666 24.2666,-17.3333 10.4,-12.1333 15.6,-30.3333 6.0667,-19.0667 6.0667,-44.2 v -232.2667 h 147.3334 v 433.3334 h -131.7334 l -4.3333,-81.4667 q -20.8,45.9333 -58.0667,68.4667 -37.2667,21.6666 -90.1334,21.6666 z" />
      <path
         id="path1483"
         style="font-style:normal;font-variant:normal;font-weight:bold;font-stretch:normal;font-size:866.66680908px;font-family:'Work Sans';-inkscape-font-specification:'Work Sans Bold';fill:#5b2ab1;fill-opacity:1"
         d="m 1780.3291,1520.2397 v -433.3334 h 131.7333 l 7.8,149.0666 -16.4666,-16.4666 q 8.6666,-46.8 30.3333,-78 22.5333,-31.2 55.4667,-46.8 33.8,-16.4667 75.4,-16.4667 45.0667,0 78,17.3333 33.8,17.3334 52.8667,51.1334 19.0666,33.8 19.0666,84.9333 v 288.6001 h -147.3333 v -249.6001 q 0,-45.0667 -17.3333,-62.4 -17.3334,-17.3333 -44.2001,-17.3333 -20.8,0 -39,10.4 -18.2,9.5333 -28.6,31.2 -10.4,21.6666 -10.4,58.0667 v 229.6667 z" />
      <path
         id="path1485"
         style="font-style:normal;font-variant:normal;font-weight:bold;font-stretch:normal;font-size:866.66680908px;font-family:'Work Sans';-inkscape-font-specification:'Work Sans Bold';fill:#5b2ab1;fill-opacity:1"
         d="M 2494.6656,949.10623 V 1365.973 q 0,31.2 14.7333,45.0666 15.6,13 42.4667,13 20.8,0 35.5333,-4.3333 15.6,-5.2 27.7334,-14.7333 l 15.6,91 q -21.6667,15.6 -54.6001,24.2667 -32.9333,8.6666 -67.6,8.6666 -49.4,0 -85.8,-13.8666 -35.5333,-13.8667 -55.4667,-44.2001 -19.0666,-30.3333 -19.9333,-80.6 V 989.83957 Z m 129.1333,137.80007 v 104.8666 h -351 v -104.8666 z" />
      <path
         id="path1487"
         style="font-style:normal;font-variant:normal;font-weight:bold;font-stretch:normal;font-size:866.66680908px;font-family:'Work Sans';-inkscape-font-specification:'Work Sans Bold';fill:#5b2ab1;fill-opacity:1"
         d="m 2766.3656,1036.6396 q -45.0666,0 -65.8666,-16.4667 -19.9334,-17.3333 -19.9334,-53.73334 0,-37.26667 19.9334,-53.73334 20.8,-17.33333 65.8666,-17.33333 44.2,0 65,17.33333 20.8,16.46667 20.8,53.73334 0,36.40004 -20.8,53.73334 -20.8,16.4667 -65,16.4667 z m 73.6667,50.2667 v 433.3334 H 2692.699 v -433.3334 z" />
      <path
         id="path1489"
         style="font-style:normal;font-variant:normal;font-weight:bold;font-stretch:normal;font-size:866.66680908px;font-family:'Work Sans';-inkscape-font-specification:'Work Sans Bold';fill:#5b2ab1;fill-opacity:1"
         d="m 3091.3793,1528.9063 q -44.2,0 -78,-14.7333 -32.9334,-15.6 -52.0001,-49.4 -19.0666,-33.8 -19.0666,-88.4 v -289.4667 h 147.3333 v 254.8 q 0,41.6 16.4667,58.0667 16.4667,16.4666 46.8,16.4666 15.6,0 29.4667,-5.2 13.8666,-6.0666 24.2667,-17.3333 10.4,-12.1333 15.6,-30.3333 6.0666,-19.0667 6.0666,-44.2 v -232.2667 h 147.3334 v 433.3334 h -131.7334 l -4.3333,-81.4667 q -20.8,45.9333 -58.0667,68.4667 -37.2667,21.6666 -90.1333,21.6666 z" />
      <path
         id="path1491"
         style="font-style:normal;font-variant:normal;font-weight:bold;font-stretch:normal;font-size:866.66680908px;font-family:'Work Sans';-inkscape-font-specification:'Work Sans Bold';fill:#5b2ab1;fill-opacity:1"
         d="m 3481.5012,1520.2397 v -433.3334 h 131.7334 l 4.3333,84.0666 q 20.8,-45.9333 58.0667,-69.3333 38.1333,-23.4 87.5333,-23.4 48.5334,0 84.0667,21.6667 35.5333,21.6666 52.8667,64.1333 13.8666,-28.6 35.5333,-47.6667 22.5333,-19.0666 51.1333,-28.6 28.6001,-9.5333 58.9334,-9.5333 43.3333,0 76.2667,17.3333 32.9333,16.4667 52,51.1334 19.9333,33.8 19.9333,84.9333 v 288.6001 H 4046.568 v -254.8001 q 0,-41.6 -16.4667,-58.0667 -15.6,-16.4666 -42.4667,-16.4666 -21.6667,0 -39.8667,11.2666 -17.3333,10.4 -26.8666,32.0667 -9.5334,21.6667 -9.5334,54.6 v 231.4001 h -147.3333 v -254.8001 q 0,-41.6 -16.4667,-58.0667 -16.4667,-16.4666 -42.4667,-16.4666 -19.9333,0 -38.1333,10.4 -17.3333,10.4 -27.7333,32.9333 -10.4,21.6667 -10.4,57.2 v 228.8001 z" />
    </g>
  </g>
</svg>
