<?xml version="1.0" encoding="UTF-8" standalone="no"?>
<svg
   xmlns:dc="http://purl.org/dc/elements/1.1/"
   xmlns:cc="http://creativecommons.org/ns#"
   xmlns:rdf="http://www.w3.org/1999/02/22-rdf-syntax-ns#"
   xmlns:svg="http://www.w3.org/2000/svg"
   xmlns="http://www.w3.org/2000/svg"
   id="svg8"
   version="1.1"
   viewBox="0 0 500 500"
   height="500mm"
   width="500mm">
  <defs
     id="defs2" />
  <metadata
     id="metadata5">
    <rdf:RDF>
      <cc:Work
         rdf:about="">
        <dc:format>image/svg+xml</dc:format>
        <dc:type
           rdf:resource="http://purl.org/dc/dcmitype/StillImage" />
        <dc:title></dc:title>
      </cc:Work>
    </rdf:RDF>
  </metadata>
  <g
     style="display:inline"
     transform="translate(0,203)"
     id="layer1">
    <rect
       y="-203"
       x="1.3322676e-14"
       height="500"
       width="500"
       id="rect23"
       style="opacity:1;fill:#5b2ab1;fill-opacity:1;stroke-width:0.26458332" />
  </g>
  <g
     style="display:inline"
     id="layer2">
    <g
       id="flowRoot10"
       style="font-style:normal;font-variant:normal;font-weight:900;font-stretch:normal;font-size:1066.66674805px;line-height:1.25;font-family:'Source Code Pro';-inkscape-font-specification:'Source Code Pro Heavy';letter-spacing:0px;word-spacing:0px;fill:#000000;fill-opacity:1;stroke:none"
       transform="matrix(0.26458333,0,0,0.26458333,-33.003225,-139.12044)"
       aria-label="n">
      <path
         id="path829"
         style="font-style:normal;font-variant:normal;font-weight:bold;font-stretch:normal;font-size:1333.33337402px;font-family:'Work Sans';-inkscape-font-specification:'Work Sans Bold';fill:#ffffff;fill-opacity:1"
         d="m 735.61849,1810.6915 v -666.6667 h 202.66667 l 12.00001,229.3333 -25.33334,-25.3333 q 13.33333,-72 46.66667,-120 34.6667,-48 85.3333,-72 52,-25.3334 116,-25.3334 69.3334,0 120,26.6667 52,26.6667 81.3334,78.6667 29.3333,52 29.3333,130.6666 v 444.0001 h -226.6667 v -384.0001 q 0,-69.3333 -26.6666,-96 -26.6667,-26.6666 -68,-26.6666 -32,0 -60,16 -28.00003,14.6666 -44.00003,48 -16,33.3333 -16,89.3333 v 353.3334 z" />
    </g>
  </g>
</svg>
